<mxfile host="app.diagrams.net" modified="2024-01-19T14:27:54.701Z" agent="Mozilla/5.0 (Windows NT 10.0; Win64; x64) AppleWebKit/537.36 (KHTML, like Gecko) Chrome/120.0.0.0 Safari/537.36" version="22.1.21" etag="AIaaRN5N2W9WIltyQfPL" type="github">
  <diagram name="PÃ¡gina-1" id="1UhbOEM0njXoafqlF-kI">
    <mxGraphModel>
      <root>
        <mxCell id="0" />
        <mxCell id="1" parent="0" />
      </root>
    </mxGraphModel>
  </diagram>
</mxfile>
